<svg xmlns="http://www.w3.org/2000/svg" viewBox="0 0 248 52" fill="none">
  <text x="0" y="40" font-family="Arial Black, Arial, sans-serif" font-size="34" font-weight="900" fill="#E30613">Smart</text>
  <text x="98" y="40" font-family="Arial Black, Arial, sans-serif" font-size="34" font-weight="900" fill="#FFFFFF">Health</text>
  <path d="M148 8c-6 0-10 4-10 9v2" stroke="#D0D0D0" stroke-width="2.2" stroke-linecap="round"/>
  <path d="M168 8c6 0 10 4 10 9v2" stroke="#D0D0D0" stroke-width="2.2" stroke-linecap="round"/>
  <path d="M148 19c0 0 8-2 10-2s10 2 10 2v3c0 8-10 14-10 14s-10-6-10-14v-3z" fill="#FFFFFF" stroke="#E8E8E8" stroke-width="1"/>
  <path d="M158 24c-4 6-4 12 0 18" stroke="#FFFFFF" stroke-width="3" stroke-linecap="round"/>
  <path d="M152 30c3-4 10-4 13 0 3 4 3 10-1 14-4 4-10 4-14 0" stroke="#FFFFFF" stroke-width="2.8" fill="none"/>
  <path d="M150 34h16" stroke="#E30613" stroke-width="2" stroke-linecap="round"/>
  <path d="M152 36l2 2 4-5" stroke="#E30613" stroke-width="1.8" stroke-linecap="round" stroke-linejoin="round"/>
  <circle cx="176" cy="36" r="9" fill="#E0E0E0" stroke="#BDBDBD" stroke-width="1.5"/>
  <circle cx="176" cy="36" r="4.5" fill="#424242"/>
</svg>
